<svg width="32" height="32" viewBox="0 0 32 32" fill="none" xmlns="http://www.w3.org/2000/svg">
<rect width="32" height="32" rx="5" fill="#F802EC"/>
<path d="M16 8C18.8438 8 21.4688 9.53125 22.9062 12C24.3438 14.5 24.3438 17.5312 22.9062 20C21.4688 22.5 18.8438 24 16 24C13.125 24 10.5 22.5 9.0625 20C7.625 17.5312 7.625 14.5 9.0625 12C10.5 9.53125 13.125 8 16 8ZM15.25 11.75V16C15.25 16.25 15.375 16.5 15.5625 16.625L18.5625 18.625C18.9062 18.875 19.375 18.7812 19.625 18.4375C19.8438 18.0938 19.75 17.625 19.4062 17.375L16.75 15.625V11.75C16.75 11.3438 16.4062 11 16 11C15.5625 11 15.25 11.3438 15.25 11.75Z" fill="#0E0D1A"/>
</svg>
